SplineFontDB: 3.2
FontName: DigitalWristwatches
FullName: DigitalWristwatches
FamilyName: DigitalWristwatches
Weight: Regular
Copyright: Copyright (c) 2020, 20kdc\n
UComments: "2020-12-23: Created with FontForge (http://fontforge.org)"
Version: 001.000
ItalicAngle: 0
UnderlinePosition: -1
UnderlineWidth: 0
Ascent: 8
Descent: 2
InvalidEm: 0
LayerCount: 2
Layer: 0 1 "Back" 1
Layer: 1 1 "Fore" 0
XUID: [1021 96 -1905331598 16367518]
StyleMap: 0x0000
FSType: 0
OS2Version: 0
OS2_WeightWidthSlopeOnly: 0
OS2_UseTypoMetrics: 1
CreationTime: 1608759883
ModificationTime: 1611957192
OS2TypoAscent: 0
OS2TypoAOffset: 1
OS2TypoDescent: 0
OS2TypoDOffset: 1
OS2TypoLinegap: 1
OS2WinAscent: 0
OS2WinAOffset: 1
OS2WinDescent: 0
OS2WinDOffset: 1
HheadAscent: 0
HheadAOffset: 1
HheadDescent: 0
HheadDOffset: 1
OS2Vendor: 'PfEd'
MarkAttachClasses: 1
DEI: 91125
Encoding: ISO8859-1
Compacted: 1
UnicodeInterp: none
NameList: AGL For New Fonts
DisplaySize: -48
AntiAlias: 1
FitToEm: 0
WinInfo: 0 38 14
BeginPrivate: 0
EndPrivate
BeginChars: 256 128

StartChar: uni0000
Encoding: 0 0 0
Width: 7
VWidth: 0
Flags: MW
LayerCount: 2
Fore
SplineSet
0 -2 m 1,0,-1
 0 8 l 1,1,-1
 6 8 l 1,2,-1
 6 -2 l 1,3,-1
 0 -2 l 1,0,-1
EndSplineSet
Validated: 1
EndChar

StartChar: uni0001
Encoding: 1 1 1
Width: 7
VWidth: 0
Flags: MW
LayerCount: 2
Fore
SplineSet
0 -2 m 1,0,-1
 0 8 l 1,1,-1
 6 8 l 1,2,-1
 6 -2 l 1,3,-1
 0 -2 l 1,0,-1
EndSplineSet
Validated: 1
EndChar

StartChar: uni0002
Encoding: 2 2 2
Width: 7
VWidth: 0
Flags: MW
LayerCount: 2
Fore
SplineSet
0 -2 m 1,0,-1
 0 8 l 1,1,-1
 6 8 l 1,2,-1
 6 -2 l 1,3,-1
 0 -2 l 1,0,-1
EndSplineSet
Validated: 1
EndChar

StartChar: uni0003
Encoding: 3 3 3
Width: 7
VWidth: 0
Flags: MW
LayerCount: 2
Fore
SplineSet
0 -2 m 1,0,-1
 0 8 l 1,1,-1
 6 8 l 1,2,-1
 6 -2 l 1,3,-1
 0 -2 l 1,0,-1
EndSplineSet
Validated: 1
EndChar

StartChar: uni0004
Encoding: 4 4 4
Width: 7
VWidth: 0
Flags: MW
LayerCount: 2
Fore
SplineSet
0 -2 m 1,0,-1
 0 8 l 1,1,-1
 6 8 l 1,2,-1
 6 -2 l 1,3,-1
 0 -2 l 1,0,-1
EndSplineSet
Validated: 1
EndChar

StartChar: uni0005
Encoding: 5 5 5
Width: 7
VWidth: 0
Flags: MW
LayerCount: 2
Fore
SplineSet
0 -2 m 1,0,-1
 0 8 l 1,1,-1
 6 8 l 1,2,-1
 6 -2 l 1,3,-1
 0 -2 l 1,0,-1
EndSplineSet
Validated: 1
EndChar

StartChar: uni0006
Encoding: 6 6 6
Width: 7
VWidth: 0
Flags: MW
LayerCount: 2
Fore
SplineSet
0 -2 m 1,0,-1
 0 8 l 1,1,-1
 6 8 l 1,2,-1
 6 -2 l 1,3,-1
 0 -2 l 1,0,-1
EndSplineSet
Validated: 1
EndChar

StartChar: uni0007
Encoding: 7 7 7
Width: 7
VWidth: 0
Flags: MW
LayerCount: 2
Fore
SplineSet
0 -2 m 1,0,-1
 0 8 l 1,1,-1
 6 8 l 1,2,-1
 6 -2 l 1,3,-1
 0 -2 l 1,0,-1
EndSplineSet
Validated: 1
EndChar

StartChar: uni0008
Encoding: 8 8 8
Width: 7
VWidth: 0
Flags: MW
LayerCount: 2
Fore
SplineSet
0 -2 m 1,0,-1
 0 8 l 1,1,-1
 6 8 l 1,2,-1
 6 -2 l 1,3,-1
 0 -2 l 1,0,-1
EndSplineSet
Validated: 1
EndChar

StartChar: uni0009
Encoding: 9 9 9
Width: 7
VWidth: 0
Flags: MW
LayerCount: 2
Fore
SplineSet
0 -2 m 1,0,-1
 0 8 l 1,1,-1
 6 8 l 1,2,-1
 6 -2 l 1,3,-1
 0 -2 l 1,0,-1
EndSplineSet
Validated: 1
EndChar

StartChar: uni000B
Encoding: 11 11 11
Width: 7
VWidth: 0
Flags: MW
LayerCount: 2
Fore
SplineSet
0 -2 m 1,0,-1
 0 8 l 1,1,-1
 6 8 l 1,2,-1
 6 -2 l 1,3,-1
 0 -2 l 1,0,-1
EndSplineSet
Validated: 1
EndChar

StartChar: uni000C
Encoding: 12 12 12
Width: 7
VWidth: 0
Flags: MW
LayerCount: 2
Fore
SplineSet
0 -2 m 1,0,-1
 0 8 l 1,1,-1
 6 8 l 1,2,-1
 6 -2 l 1,3,-1
 0 -2 l 1,0,-1
EndSplineSet
Validated: 1
EndChar

StartChar: uni000D
Encoding: 13 13 13
Width: 7
VWidth: 0
Flags: MW
LayerCount: 2
Fore
SplineSet
0 -2 m 1,0,-1
 0 8 l 1,1,-1
 6 8 l 1,2,-1
 6 -2 l 1,3,-1
 0 -2 l 1,0,-1
EndSplineSet
Validated: 1
EndChar

StartChar: uni000E
Encoding: 14 14 14
Width: 7
VWidth: 0
Flags: MW
LayerCount: 2
Fore
SplineSet
0 -2 m 1,0,-1
 0 8 l 1,1,-1
 6 8 l 1,2,-1
 6 -2 l 1,3,-1
 0 -2 l 1,0,-1
EndSplineSet
Validated: 1
EndChar

StartChar: uni000F
Encoding: 15 15 15
Width: 7
VWidth: 0
Flags: MW
LayerCount: 2
Fore
SplineSet
0 -2 m 1,0,-1
 0 8 l 1,1,-1
 6 8 l 1,2,-1
 6 -2 l 1,3,-1
 0 -2 l 1,0,-1
EndSplineSet
Validated: 1
EndChar

StartChar: uni0010
Encoding: 16 16 16
Width: 7
VWidth: 0
Flags: MW
LayerCount: 2
Fore
SplineSet
0 -2 m 1,0,-1
 0 8 l 1,1,-1
 6 8 l 1,2,-1
 6 -2 l 1,3,-1
 0 -2 l 1,0,-1
EndSplineSet
Validated: 1
EndChar

StartChar: uni0011
Encoding: 17 17 17
Width: 7
VWidth: 0
Flags: MW
LayerCount: 2
Fore
SplineSet
0 -2 m 1,0,-1
 0 8 l 1,1,-1
 6 8 l 1,2,-1
 6 -2 l 1,3,-1
 0 -2 l 1,0,-1
EndSplineSet
Validated: 1
EndChar

StartChar: uni0012
Encoding: 18 18 18
Width: 7
VWidth: 0
Flags: MW
LayerCount: 2
Fore
SplineSet
0 -2 m 1,0,-1
 0 8 l 1,1,-1
 6 8 l 1,2,-1
 6 -2 l 1,3,-1
 0 -2 l 1,0,-1
EndSplineSet
Validated: 1
EndChar

StartChar: uni0013
Encoding: 19 19 19
Width: 7
VWidth: 0
Flags: MW
LayerCount: 2
Fore
SplineSet
0 -2 m 1,0,-1
 0 8 l 1,1,-1
 6 8 l 1,2,-1
 6 -2 l 1,3,-1
 0 -2 l 1,0,-1
EndSplineSet
Validated: 1
EndChar

StartChar: uni0014
Encoding: 20 20 20
Width: 7
VWidth: 0
Flags: MW
LayerCount: 2
Fore
SplineSet
0 -2 m 1,0,-1
 0 8 l 1,1,-1
 6 8 l 1,2,-1
 6 -2 l 1,3,-1
 0 -2 l 1,0,-1
EndSplineSet
Validated: 1
EndChar

StartChar: uni0015
Encoding: 21 21 21
Width: 7
VWidth: 0
Flags: MW
LayerCount: 2
Fore
SplineSet
0 -2 m 1,0,-1
 0 8 l 1,1,-1
 6 8 l 1,2,-1
 6 -2 l 1,3,-1
 0 -2 l 1,0,-1
EndSplineSet
Validated: 1
EndChar

StartChar: uni0016
Encoding: 22 22 22
Width: 7
VWidth: 0
Flags: MW
LayerCount: 2
Fore
SplineSet
0 -2 m 1,0,-1
 0 8 l 1,1,-1
 6 8 l 1,2,-1
 6 -2 l 1,3,-1
 0 -2 l 1,0,-1
EndSplineSet
Validated: 1
EndChar

StartChar: uni0017
Encoding: 23 23 23
Width: 7
VWidth: 0
Flags: MW
LayerCount: 2
Fore
SplineSet
0 -2 m 1,0,-1
 0 8 l 1,1,-1
 6 8 l 1,2,-1
 6 -2 l 1,3,-1
 0 -2 l 1,0,-1
EndSplineSet
Validated: 1
EndChar

StartChar: uni0018
Encoding: 24 24 24
Width: 7
VWidth: 0
Flags: MW
LayerCount: 2
Fore
SplineSet
0 -2 m 1,0,-1
 0 8 l 1,1,-1
 6 8 l 1,2,-1
 6 -2 l 1,3,-1
 0 -2 l 1,0,-1
EndSplineSet
Validated: 1
EndChar

StartChar: uni0019
Encoding: 25 25 25
Width: 7
VWidth: 0
Flags: MW
LayerCount: 2
Fore
SplineSet
0 -2 m 1,0,-1
 0 8 l 1,1,-1
 6 8 l 1,2,-1
 6 -2 l 1,3,-1
 0 -2 l 1,0,-1
EndSplineSet
Validated: 1
EndChar

StartChar: uni001A
Encoding: 26 26 26
Width: 7
VWidth: 0
Flags: MW
LayerCount: 2
Fore
SplineSet
0 -2 m 1,0,-1
 0 8 l 1,1,-1
 6 8 l 1,2,-1
 6 -2 l 1,3,-1
 0 -2 l 1,0,-1
EndSplineSet
Validated: 1
EndChar

StartChar: uni001B
Encoding: 27 27 27
Width: 7
VWidth: 0
Flags: MW
LayerCount: 2
Fore
SplineSet
0 -2 m 1,0,-1
 0 8 l 1,1,-1
 6 8 l 1,2,-1
 6 -2 l 1,3,-1
 0 -2 l 1,0,-1
EndSplineSet
Validated: 1
EndChar

StartChar: uni001C
Encoding: 28 28 28
Width: 7
VWidth: 0
Flags: MW
LayerCount: 2
Fore
SplineSet
0 -2 m 1,0,-1
 0 8 l 1,1,-1
 6 8 l 1,2,-1
 6 -2 l 1,3,-1
 0 -2 l 1,0,-1
EndSplineSet
Validated: 1
EndChar

StartChar: uni001D
Encoding: 29 29 29
Width: 7
VWidth: 0
Flags: MW
LayerCount: 2
Fore
SplineSet
0 -2 m 1,0,-1
 0 8 l 1,1,-1
 6 8 l 1,2,-1
 6 -2 l 1,3,-1
 0 -2 l 1,0,-1
EndSplineSet
Validated: 1
EndChar

StartChar: uni001E
Encoding: 30 30 30
Width: 7
VWidth: 0
Flags: MW
LayerCount: 2
Fore
SplineSet
0 -2 m 1,0,-1
 0 8 l 1,1,-1
 6 8 l 1,2,-1
 6 -2 l 1,3,-1
 0 -2 l 1,0,-1
EndSplineSet
Validated: 1
EndChar

StartChar: uni001F
Encoding: 31 31 31
Width: 7
VWidth: 0
Flags: MW
LayerCount: 2
Fore
SplineSet
0 -2 m 1,0,-1
 0 8 l 1,1,-1
 6 8 l 1,2,-1
 6 -2 l 1,3,-1
 0 -2 l 1,0,-1
EndSplineSet
Validated: 1
EndChar

StartChar: exclam
Encoding: 33 33 33
Width: 7
VWidth: 0
Flags: MW
LayerCount: 2
Fore
SplineSet
3 1 m 25,0,-1
 2 2 l 1,1,-1
 2 7 l 1,2,-1
 3 8 l 1,3,-1
 4 7 l 1,4,-1
 4 2 l 1,5,-1
 3 1 l 25,0,-1
2 -1 m 25,6,-1
 3 0 l 1,7,-1
 4 -1 l 1,8,-1
 3 -2 l 1,9,-1
 2 -1 l 25,6,-1
EndSplineSet
Validated: 1
EndChar

StartChar: quotedbl
Encoding: 34 34 34
Width: 7
VWidth: 0
Flags: MW
LayerCount: 2
Fore
SplineSet
4 8 m 1,0,-1
 4 6 l 1,1,-1
 5 5 l 1,2,-1
 5 8 l 1,3,-1
 4 8 l 1,0,-1
1 8 m 1,4,-1
 1 6 l 1,5,-1
 2 5 l 1,6,-1
 2 8 l 1,7,-1
 1 8 l 1,4,-1
EndSplineSet
Validated: 9
EndChar

StartChar: numbersign
Encoding: 35 35 35
Width: 7
VWidth: 0
Flags: MW
LayerCount: 2
Fore
SplineSet
3 8 m 1,0,-1
 3 1 l 1,1,-1
 4 0 l 1,2,-1
 4 2 l 1,3,-1
 5 2 l 1,4,-1
 6 3 l 1,5,-1
 4 3 l 1,6,-1
 4 5 l 1,7,-1
 5 5 l 1,8,-1
 6 6 l 1,9,-1
 4 6 l 1,10,-1
 4 8 l 1,11,-1
 3 8 l 1,0,-1
1 8 m 1,12,-1
 1 6 l 1,13,-1
 0 6 l 1,14,-1
 0 5 l 1,15,-1
 1 5 l 1,16,-1
 1 3 l 1,17,-1
 0 3 l 1,18,-1
 0 2 l 1,19,-1
 1 2 l 1,20,-1
 1 1 l 1,21,-1
 2 0 l 1,22,-1
 2 2 l 1,23,-1
 3 2 l 1,24,-1
 3 3 l 1,25,-1
 2 3 l 1,26,-1
 2 5 l 1,27,-1
 3 5 l 1,28,-1
 3 6 l 1,29,-1
 2 6 l 1,30,-1
 2 8 l 1,31,-1
 1 8 l 1,12,-1
EndSplineSet
Validated: 5
EndChar

StartChar: dollar
Encoding: 36 36 36
Width: 7
VWidth: 0
Flags: MW
LayerCount: 2
Fore
SplineSet
1 0 m 1,0,-1
 2 1 l 17,1,-1
 3 1 l 1,2,-1
 3 3 l 1,3,-1
 4 3 l 1,4,-1
 4 1 l 1,5,-1
 5 1 l 9,6,-1
 5 3 l 25,7,-1
 2 3 l 25,8,-1
 1 4 l 25,9,-1
 1 6 l 25,10,-1
 2 7 l 17,11,-1
 3 7 l 1,12,-1
 3 8 l 1,13,-1
 4 8 l 1,14,-1
 4 7 l 1,15,-1
 6 7 l 9,16,-1
 5 6 l 25,17,-1
 2 6 l 25,18,-1
 2 4 l 17,19,-1
 3 4 l 1,20,-1
 3 6 l 1,21,-1
 4 6 l 1,22,-1
 4 4 l 1,23,-1
 5 4 l 9,24,-1
 6 3 l 25,25,-1
 6 1 l 25,26,-1
 5 0 l 1,27,-1
 4 0 l 1,28,-1
 4 -1 l 1,29,-1
 3 -1 l 1,30,-1
 3 0 l 1,31,-1
 1 0 l 1,0,-1
EndSplineSet
EndChar

StartChar: percent
Encoding: 37 37 37
Width: 7
VWidth: 0
Flags: MW
LayerCount: 2
Fore
SplineSet
0 1 m 25,0,-1
 6 6 l 25,1,-1
 6 5 l 25,2,-1
 0 0 l 25,3,-1
 0 1 l 25,0,-1
4 -2 m 25,4,-1
 6 0 l 25,5,-1
 4 2 l 25,6,-1
 2 0 l 25,7,-1
 4 -2 l 25,4,-1
2 8 m 25,8,-1
 4 6 l 25,9,-1
 2 4 l 25,10,-1
 0 6 l 25,11,-1
 2 8 l 25,8,-1
EndSplineSet
EndChar

StartChar: ampersand
Encoding: 38 38 38
Width: 7
VWidth: 0
Flags: MW
LayerCount: 2
Fore
SplineSet
3 0 m 25,0,-1
 6 3 l 25,1,-1
 3 6 l 25,2,-1
 0 3 l 25,3,-1
 3 0 l 25,0,-1
EndSplineSet
EndChar

StartChar: quotesingle
Encoding: 39 39 39
Width: 7
VWidth: 0
Flags: MW
LayerCount: 2
Fore
SplineSet
2 8 m 1,0,-1
 2 6 l 1,1,-1
 3 5 l 1,2,-1
 3 8 l 1,3,-1
 2 8 l 1,0,-1
EndSplineSet
Validated: 9
EndChar

StartChar: parenleft
Encoding: 40 40 40
Width: 7
VWidth: 0
Flags: MW
LayerCount: 2
Fore
SplineSet
6 7 m 25,0,-1
 5 8 l 1,1,-1
 2 5 l 1,2,-1
 2 1 l 1,3,-1
 5 -2 l 1,4,-1
 6 -1 l 25,5,-1
 4 1 l 25,6,-1
 4 5 l 25,7,-1
 6 7 l 25,0,-1
EndSplineSet
EndChar

StartChar: parenright
Encoding: 41 41 41
Width: 7
VWidth: 0
Flags: MW
LayerCount: 2
Fore
SplineSet
0 7 m 25,0,-1
 1 8 l 1,1,-1
 4 5 l 5,2,-1
 4 1 l 1,3,-1
 1 -2 l 1,4,-1
 0 -1 l 25,5,-1
 2 1 l 25,6,-1
 2 5 l 25,7,-1
 0 7 l 25,0,-1
EndSplineSet
EndChar

StartChar: asterisk
Encoding: 42 42 42
Width: 7
VWidth: 0
Flags: MW
LayerCount: 2
Fore
SplineSet
2 8 m 25,0,-1
 3 7 l 25,1,-1
 4 8 l 25,2,-1
 5 7 l 25,3,-1
 4 6 l 25,4,-1
 5 5 l 25,5,-1
 4 4 l 25,6,-1
 3 5 l 25,7,-1
 2 4 l 25,8,-1
 1 5 l 25,9,-1
 2 6 l 25,10,-1
 1 7 l 25,11,-1
 2 8 l 25,0,-1
EndSplineSet
EndChar

StartChar: plus
Encoding: 43 43 43
Width: 7
VWidth: 0
Flags: MW
LayerCount: 2
Fore
SplineSet
0 4 m 25,0,-1
 1 5 l 1,1,-1
 2 5 l 1,2,-1
 2 6 l 1,3,-1
 3 7 l 1,4,-1
 4 6 l 5,5,-1
 4 5 l 1,6,-1
 5 5 l 1,7,-1
 6 4 l 1,8,-1
 5 3 l 1,9,-1
 4 3 l 1,10,-1
 4 2 l 1,11,-1
 3 1 l 1,12,-1
 2 2 l 1,13,-1
 2 3 l 1,14,-1
 1 3 l 1,15,-1
 0 4 l 25,0,-1
EndSplineSet
EndChar

StartChar: comma
Encoding: 44 44 44
Width: 7
VWidth: 0
Flags: MW
LayerCount: 2
Fore
SplineSet
4 1 m 1,0,-1
 3 2 l 1,1,-1
 2 1 l 1,2,-1
 2 -1 l 1,3,-1
 4 1 l 1,0,-1
EndSplineSet
EndChar

StartChar: hyphen
Encoding: 45 45 45
Width: 7
VWidth: 0
Flags: MW
LayerCount: 2
Fore
SplineSet
0 4 m 25,0,-1
 1 5 l 1,1,-1
 5 5 l 1,2,-1
 6 4 l 1,3,-1
 5 3 l 1,4,-1
 1 3 l 1,5,-1
 0 4 l 25,0,-1
EndSplineSet
EndChar

StartChar: period
Encoding: 46 46 46
Width: 7
VWidth: 0
Flags: MW
LayerCount: 2
Fore
SplineSet
2 1 m 1,0,-1
 3 2 l 1,1,-1
 4 1 l 1,2,-1
 4 0 l 1,3,-1
 3 -1 l 1,4,-1
 2 0 l 1,5,-1
 2 1 l 1,0,-1
EndSplineSet
EndChar

StartChar: slash
Encoding: 47 47 47
Width: 7
VWidth: 0
Flags: MW
LayerCount: 2
Fore
SplineSet
1 -2 m 29,0,-1
 0 -2 l 25,1,-1
 0 -1 l 25,2,-1
 5 8 l 25,3,-1
 6 8 l 25,4,-1
 6 7 l 25,5,-1
 1 -2 l 29,0,-1
EndSplineSet
EndChar

StartChar: zero
Encoding: 48 48 48
Width: 7
VWidth: 0
Flags: MW
LayerCount: 2
Fore
SplineSet
2 0 m 1,0,-1
 4 0 l 1,1,-1
 5 -1 l 1,2,-1
 4 -2 l 1,3,-1
 2 -2 l 1,4,-1
 1 -1 l 1,5,-1
 2 0 l 1,0,-1
4 2 m 25,6,-1
 5 3 l 1,7,-1
 6 2 l 1,8,-1
 6 0 l 1,9,-1
 5 -1 l 1,10,-1
 4 0 l 1,11,-1
 4 2 l 25,6,-1
4 6 m 25,12,-1
 5 7 l 1,13,-1
 6 6 l 1,14,-1
 6 4 l 1,15,-1
 5 3 l 1,16,-1
 4 4 l 1,17,-1
 4 6 l 25,12,-1
1 7 m 25,18,-1
 2 8 l 1,19,-1
 4 8 l 1,20,-1
 5 7 l 1,21,-1
 4 6 l 1,22,-1
 2 6 l 1,23,-1
 1 7 l 25,18,-1
1 3 m 25,24,-1
 0 4 l 1,25,-1
 0 6 l 1,26,-1
 1 7 l 1,27,-1
 2 6 l 1,28,-1
 2 4 l 1,29,-1
 1 3 l 25,24,-1
1 -1 m 25,30,-1
 0 0 l 1,31,-1
 0 2 l 1,32,-1
 1 3 l 1,33,-1
 2 2 l 1,34,-1
 2 0 l 1,35,-1
 1 -1 l 25,30,-1
EndSplineSet
Validated: 5
EndChar

StartChar: one
Encoding: 49 49 49
Width: 7
VWidth: 0
Flags: MW
LayerCount: 2
Fore
SplineSet
4 2 m 25,0,-1
 5 3 l 1,1,-1
 6 2 l 1,2,-1
 6 0 l 1,3,-1
 5 -1 l 1,4,-1
 4 0 l 1,5,-1
 4 2 l 25,0,-1
4 6 m 25,6,-1
 5 7 l 1,7,-1
 6 6 l 1,8,-1
 6 4 l 1,9,-1
 5 3 l 1,10,-1
 4 4 l 1,11,-1
 4 6 l 25,6,-1
EndSplineSet
Validated: 5
EndChar

StartChar: two
Encoding: 50 50 50
Width: 7
VWidth: 0
Flags: MW
LayerCount: 2
Fore
SplineSet
1 3 m 25,0,-1
 2 4 l 1,1,-1
 4 4 l 1,2,-1
 5 3 l 1,3,-1
 4 2 l 1,4,-1
 2 2 l 1,5,-1
 1 3 l 25,0,-1
2 0 m 1,6,-1
 4 0 l 1,7,-1
 5 -1 l 1,8,-1
 4 -2 l 1,9,-1
 2 -2 l 1,10,-1
 1 -1 l 1,11,-1
 2 0 l 1,6,-1
4 6 m 25,12,-1
 5 7 l 1,13,-1
 6 6 l 1,14,-1
 6 4 l 1,15,-1
 5 3 l 1,16,-1
 4 4 l 1,17,-1
 4 6 l 25,12,-1
1 7 m 25,18,-1
 2 8 l 1,19,-1
 4 8 l 1,20,-1
 5 7 l 1,21,-1
 4 6 l 1,22,-1
 2 6 l 1,23,-1
 1 7 l 25,18,-1
1 -1 m 25,24,-1
 0 0 l 1,25,-1
 0 2 l 1,26,-1
 1 3 l 1,27,-1
 2 2 l 1,28,-1
 2 0 l 1,29,-1
 1 -1 l 25,24,-1
EndSplineSet
Validated: 5
EndChar

StartChar: three
Encoding: 51 51 51
Width: 7
VWidth: 0
Flags: MW
LayerCount: 2
Fore
SplineSet
1 3 m 25,0,-1
 2 4 l 1,1,-1
 4 4 l 1,2,-1
 5 3 l 1,3,-1
 4 2 l 1,4,-1
 2 2 l 1,5,-1
 1 3 l 25,0,-1
2 0 m 1,6,-1
 4 0 l 1,7,-1
 5 -1 l 1,8,-1
 4 -2 l 1,9,-1
 2 -2 l 1,10,-1
 1 -1 l 1,11,-1
 2 0 l 1,6,-1
4 2 m 25,12,-1
 5 3 l 1,13,-1
 6 2 l 1,14,-1
 6 0 l 1,15,-1
 5 -1 l 1,16,-1
 4 0 l 1,17,-1
 4 2 l 25,12,-1
4 6 m 25,18,-1
 5 7 l 1,19,-1
 6 6 l 1,20,-1
 6 4 l 1,21,-1
 5 3 l 1,22,-1
 4 4 l 1,23,-1
 4 6 l 25,18,-1
1 7 m 25,24,-1
 2 8 l 1,25,-1
 4 8 l 1,26,-1
 5 7 l 1,27,-1
 4 6 l 1,28,-1
 2 6 l 1,29,-1
 1 7 l 25,24,-1
EndSplineSet
Validated: 5
EndChar

StartChar: four
Encoding: 52 52 52
Width: 7
VWidth: 0
Flags: MW
LayerCount: 2
Fore
SplineSet
1 3 m 25,0,-1
 2 4 l 1,1,-1
 4 4 l 1,2,-1
 5 3 l 1,3,-1
 4 2 l 1,4,-1
 2 2 l 1,5,-1
 1 3 l 25,0,-1
4 2 m 25,6,-1
 5 3 l 1,7,-1
 6 2 l 1,8,-1
 6 0 l 1,9,-1
 5 -1 l 1,10,-1
 4 0 l 1,11,-1
 4 2 l 25,6,-1
4 6 m 25,12,-1
 5 7 l 1,13,-1
 6 6 l 1,14,-1
 6 4 l 1,15,-1
 5 3 l 1,16,-1
 4 4 l 1,17,-1
 4 6 l 25,12,-1
1 3 m 25,18,-1
 0 4 l 1,19,-1
 0 6 l 1,20,-1
 1 7 l 1,21,-1
 2 6 l 1,22,-1
 2 4 l 1,23,-1
 1 3 l 25,18,-1
EndSplineSet
Validated: 5
EndChar

StartChar: five
Encoding: 53 53 53
Width: 7
VWidth: 0
Flags: MW
LayerCount: 2
Fore
SplineSet
1 3 m 25,0,-1
 2 4 l 1,1,-1
 4 4 l 1,2,-1
 5 3 l 1,3,-1
 4 2 l 1,4,-1
 2 2 l 1,5,-1
 1 3 l 25,0,-1
2 0 m 1,6,-1
 4 0 l 1,7,-1
 5 -1 l 1,8,-1
 4 -2 l 1,9,-1
 2 -2 l 1,10,-1
 1 -1 l 1,11,-1
 2 0 l 1,6,-1
4 2 m 25,12,-1
 5 3 l 1,13,-1
 6 2 l 1,14,-1
 6 0 l 1,15,-1
 5 -1 l 1,16,-1
 4 0 l 1,17,-1
 4 2 l 25,12,-1
1 7 m 25,18,-1
 2 8 l 1,19,-1
 4 8 l 1,20,-1
 5 7 l 1,21,-1
 4 6 l 1,22,-1
 2 6 l 1,23,-1
 1 7 l 25,18,-1
1 3 m 25,24,-1
 0 4 l 1,25,-1
 0 6 l 1,26,-1
 1 7 l 1,27,-1
 2 6 l 1,28,-1
 2 4 l 1,29,-1
 1 3 l 25,24,-1
EndSplineSet
Validated: 5
EndChar

StartChar: six
Encoding: 54 54 54
Width: 7
VWidth: 0
Flags: MW
LayerCount: 2
Fore
SplineSet
1 3 m 25,0,-1
 2 4 l 1,1,-1
 4 4 l 1,2,-1
 5 3 l 1,3,-1
 4 2 l 1,4,-1
 2 2 l 1,5,-1
 1 3 l 25,0,-1
2 0 m 1,6,-1
 4 0 l 1,7,-1
 5 -1 l 1,8,-1
 4 -2 l 1,9,-1
 2 -2 l 1,10,-1
 1 -1 l 1,11,-1
 2 0 l 1,6,-1
4 2 m 25,12,-1
 5 3 l 1,13,-1
 6 2 l 1,14,-1
 6 0 l 1,15,-1
 5 -1 l 1,16,-1
 4 0 l 1,17,-1
 4 2 l 25,12,-1
1 7 m 25,18,-1
 2 8 l 1,19,-1
 4 8 l 1,20,-1
 5 7 l 1,21,-1
 4 6 l 1,22,-1
 2 6 l 1,23,-1
 1 7 l 25,18,-1
1 3 m 25,24,-1
 0 4 l 1,25,-1
 0 6 l 1,26,-1
 1 7 l 1,27,-1
 2 6 l 1,28,-1
 2 4 l 1,29,-1
 1 3 l 25,24,-1
1 -1 m 25,30,-1
 0 0 l 1,31,-1
 0 2 l 1,32,-1
 1 3 l 1,33,-1
 2 2 l 1,34,-1
 2 0 l 1,35,-1
 1 -1 l 25,30,-1
EndSplineSet
Validated: 5
EndChar

StartChar: seven
Encoding: 55 55 55
Width: 7
VWidth: 0
Flags: MW
LayerCount: 2
Fore
SplineSet
4 2 m 25,0,-1
 5 3 l 1,1,-1
 6 2 l 1,2,-1
 6 0 l 1,3,-1
 5 -1 l 1,4,-1
 4 0 l 1,5,-1
 4 2 l 25,0,-1
4 6 m 25,6,-1
 5 7 l 1,7,-1
 6 6 l 1,8,-1
 6 4 l 1,9,-1
 5 3 l 1,10,-1
 4 4 l 1,11,-1
 4 6 l 25,6,-1
1 7 m 25,12,-1
 2 8 l 1,13,-1
 4 8 l 1,14,-1
 5 7 l 1,15,-1
 4 6 l 1,16,-1
 2 6 l 1,17,-1
 1 7 l 25,12,-1
EndSplineSet
Validated: 5
EndChar

StartChar: eight
Encoding: 56 56 56
Width: 7
VWidth: 0
Flags: MW
LayerCount: 2
Fore
SplineSet
1 3 m 25,0,-1
 2 4 l 1,1,-1
 4 4 l 1,2,-1
 5 3 l 1,3,-1
 4 2 l 1,4,-1
 2 2 l 1,5,-1
 1 3 l 25,0,-1
2 0 m 1,6,-1
 4 0 l 1,7,-1
 5 -1 l 1,8,-1
 4 -2 l 1,9,-1
 2 -2 l 1,10,-1
 1 -1 l 1,11,-1
 2 0 l 1,6,-1
4 2 m 25,12,-1
 5 3 l 1,13,-1
 6 2 l 1,14,-1
 6 0 l 1,15,-1
 5 -1 l 1,16,-1
 4 0 l 1,17,-1
 4 2 l 25,12,-1
4 6 m 25,18,-1
 5 7 l 1,19,-1
 6 6 l 1,20,-1
 6 4 l 1,21,-1
 5 3 l 1,22,-1
 4 4 l 1,23,-1
 4 6 l 25,18,-1
1 7 m 25,24,-1
 2 8 l 1,25,-1
 4 8 l 1,26,-1
 5 7 l 1,27,-1
 4 6 l 1,28,-1
 2 6 l 1,29,-1
 1 7 l 25,24,-1
1 3 m 25,30,-1
 0 4 l 1,31,-1
 0 6 l 1,32,-1
 1 7 l 1,33,-1
 2 6 l 1,34,-1
 2 4 l 1,35,-1
 1 3 l 25,30,-1
1 -1 m 25,36,-1
 0 0 l 1,37,-1
 0 2 l 1,38,-1
 1 3 l 1,39,-1
 2 2 l 1,40,-1
 2 0 l 1,41,-1
 1 -1 l 25,36,-1
EndSplineSet
Validated: 5
EndChar

StartChar: nine
Encoding: 57 57 57
Width: 7
VWidth: 0
Flags: MW
LayerCount: 2
Fore
SplineSet
1 3 m 25,0,-1
 2 4 l 1,1,-1
 4 4 l 1,2,-1
 5 3 l 1,3,-1
 4 2 l 1,4,-1
 2 2 l 1,5,-1
 1 3 l 25,0,-1
2 0 m 1,6,-1
 4 0 l 1,7,-1
 5 -1 l 1,8,-1
 4 -2 l 1,9,-1
 2 -2 l 1,10,-1
 1 -1 l 1,11,-1
 2 0 l 1,6,-1
4 2 m 25,12,-1
 5 3 l 1,13,-1
 6 2 l 1,14,-1
 6 0 l 1,15,-1
 5 -1 l 1,16,-1
 4 0 l 1,17,-1
 4 2 l 25,12,-1
4 6 m 25,18,-1
 5 7 l 1,19,-1
 6 6 l 1,20,-1
 6 4 l 1,21,-1
 5 3 l 1,22,-1
 4 4 l 1,23,-1
 4 6 l 25,18,-1
1 7 m 25,24,-1
 2 8 l 1,25,-1
 4 8 l 1,26,-1
 5 7 l 1,27,-1
 4 6 l 1,28,-1
 2 6 l 1,29,-1
 1 7 l 25,24,-1
1 3 m 25,30,-1
 0 4 l 1,31,-1
 0 6 l 1,32,-1
 1 7 l 1,33,-1
 2 6 l 1,34,-1
 2 4 l 1,35,-1
 1 3 l 25,30,-1
EndSplineSet
Validated: 5
EndChar

StartChar: colon
Encoding: 58 58 58
Width: 7
VWidth: 0
Flags: MW
LayerCount: 2
Fore
SplineSet
2 1 m 1,0,-1
 3 2 l 1,1,-1
 4 1 l 1,2,-1
 4 0 l 1,3,-1
 3 -1 l 1,4,-1
 2 0 l 1,5,-1
 2 1 l 1,0,-1
2 6 m 1,6,-1
 3 7 l 1,7,-1
 4 6 l 1,8,-1
 4 5 l 1,9,-1
 3 4 l 1,10,-1
 2 5 l 1,11,-1
 2 6 l 1,6,-1
EndSplineSet
Validated: 1
EndChar

StartChar: semicolon
Encoding: 59 59 59
Width: 7
VWidth: 0
Flags: MW
LayerCount: 2
Fore
SplineSet
4 1 m 1,0,-1
 3 2 l 1,1,-1
 2 1 l 1,2,-1
 2 -1 l 1,3,-1
 4 1 l 1,0,-1
2 6 m 1,4,-1
 3 7 l 1,5,-1
 4 6 l 1,6,-1
 4 5 l 1,7,-1
 3 4 l 1,8,-1
 2 5 l 1,9,-1
 2 6 l 1,4,-1
EndSplineSet
Validated: 9
EndChar

StartChar: less
Encoding: 60 60 60
Width: 7
VWidth: 0
Flags: MW
LayerCount: 2
Fore
SplineSet
0 4 m 1,0,-1
 4 8 l 25,1,-1
 6 8 l 1,2,-1
 2 4 l 25,3,-1
 6 0 l 1,4,-1
 4 0 l 25,5,-1
 0 4 l 1,0,-1
EndSplineSet
EndChar

StartChar: equal
Encoding: 61 61 61
Width: 7
VWidth: 0
Flags: MW
LayerCount: 2
Fore
SplineSet
0 2 m 25,0,-1
 1 3 l 1,1,-1
 5 3 l 1,2,-1
 6 2 l 1,3,-1
 5 1 l 1,4,-1
 1 1 l 1,5,-1
 0 2 l 25,0,-1
0 6 m 25,6,-1
 1 7 l 1,7,-1
 5 7 l 1,8,-1
 6 6 l 1,9,-1
 5 5 l 1,10,-1
 1 5 l 1,11,-1
 0 6 l 25,6,-1
EndSplineSet
EndChar

StartChar: greater
Encoding: 62 62 62
Width: 7
VWidth: 0
Flags: MW
LayerCount: 2
Fore
SplineSet
6 4 m 5,0,-1
 2 8 l 29,1,-1
 0 8 l 5,2,-1
 4 4 l 29,3,-1
 0 0 l 5,4,-1
 2 0 l 29,5,-1
 6 4 l 5,0,-1
EndSplineSet
EndChar

StartChar: question
Encoding: 63 63 63
Width: 7
VWidth: 0
Flags: MW
LayerCount: 2
Fore
SplineSet
3 1 m 25,0,-1
 2 2 l 1,1,-1
 4 4 l 1,2,-1
 4 5 l 1,3,-1
 3 6 l 1,4,-1
 2 6 l 1,5,-1
 2 8 l 5,6,-1
 3 8 l 1,7,-1
 6 5 l 1,8,-1
 6 4 l 1,9,-1
 4 2 l 1,10,-1
 3 1 l 25,0,-1
2 -1 m 25,11,-1
 3 0 l 1,12,-1
 4 -1 l 1,13,-1
 3 -2 l 1,14,-1
 2 -1 l 25,11,-1
EndSplineSet
EndChar

StartChar: at
Encoding: 64 64 64
Width: 7
VWidth: 0
Flags: MW
LayerCount: 2
Fore
SplineSet
2 6 m 1,0,-1
 3 6 l 1,1,-1
 4 4 l 1,2,-1
 5 4 l 1,3,-1
 5 7 l 1,4,-1
 1 7 l 1,5,-1
 1 1 l 1,6,-1
 6 1 l 1,7,-1
 6 0 l 1,8,-1
 0 0 l 1,9,-1
 0 8 l 1,10,-1
 6 8 l 1,11,-1
 6 2 l 1,12,-1
 2 2 l 1,13,-1
 2 6 l 1,0,-1
EndSplineSet
EndChar

StartChar: A
Encoding: 65 65 65
Width: 7
VWidth: 0
Flags: MW
LayerCount: 2
Fore
SplineSet
2 2 m 1,0,-1
 2 4 l 1,1,-1
 4 4 l 1,2,-1
 4 2 l 1,3,-1
 2 2 l 1,0,-1
0 0 m 1,4,-1
 0 6 l 1,5,-1
 2 8 l 1,6,-1
 4 8 l 1,7,-1
 6 6 l 1,8,-1
 6 0 l 1,9,-1
 4 0 l 1,10,-1
 4 6 l 1,11,-1
 2 6 l 1,12,-1
 2 0 l 1,13,-1
 0 0 l 1,4,-1
EndSplineSet
Validated: 5
EndChar

StartChar: B
Encoding: 66 66 66
Width: 7
VWidth: 0
Flags: MW
LayerCount: 2
Fore
SplineSet
4 5 m 1053,0,-1
4 5 m 25,1,-1
 3 6 l 1,2,-1
 2 6 l 1,3,-1
 2 2 l 1,4,-1
 4 2 l 1,5,-1
 4 3 l 1,6,-1
 3 4 l 1,7,-1
 4 5 l 25,1,-1
0 8 m 25,8,-1
 4 8 l 1,9,-1
 6 6 l 1,10,-1
 6 0 l 1,11,-1
 0 0 l 1,12,-1
 0 8 l 25,8,-1
EndSplineSet
Validated: 1
EndChar

StartChar: C
Encoding: 67 67 67
Width: 7
VWidth: 0
Flags: MW
LayerCount: 2
Fore
SplineSet
0 6 m 25,0,-1
 2 8 l 1,1,-1
 6 8 l 1,2,-1
 4 6 l 1,3,-1
 2 6 l 1,4,-1
 2 2 l 1,5,-1
 4 2 l 1,6,-1
 6 0 l 1,7,-1
 2 0 l 1,8,-1
 0 2 l 1,9,-1
 0 6 l 25,0,-1
EndSplineSet
Validated: 1
EndChar

StartChar: D
Encoding: 68 68 68
Width: 7
VWidth: 0
Flags: MW
LayerCount: 2
Fore
SplineSet
2 6 m 25,0,-1
 2 2 l 1,1,-1
 4 2 l 1,2,-1
 4 6 l 1,3,-1
 2 6 l 25,0,-1
0 8 m 25,4,-1
 4 8 l 1,5,-1
 6 6 l 1,6,-1
 6 2 l 1,7,-1
 4 0 l 1,8,-1
 0 0 l 1,9,-1
 0 8 l 25,4,-1
EndSplineSet
Validated: 1
EndChar

StartChar: E
Encoding: 69 69 69
Width: 7
VWidth: 0
Flags: MW
LayerCount: 2
Fore
SplineSet
0 6 m 25,0,-1
 2 8 l 1,1,-1
 6 8 l 1,2,-1
 4 6 l 1,3,-1
 2 6 l 1,4,-1
 2 5 l 1,5,-1
 4 5 l 1,6,-1
 2 3 l 1,7,-1
 2 2 l 1,8,-1
 4 2 l 1,9,-1
 6 0 l 1,10,-1
 2 0 l 1,11,-1
 0 2 l 1,12,-1
 0 6 l 25,0,-1
EndSplineSet
EndChar

StartChar: F
Encoding: 70 70 70
Width: 7
VWidth: 0
Flags: MW
LayerCount: 2
Fore
SplineSet
0 0 m 25,0,-1
 0 6 l 1,1,-1
 2 8 l 1,2,-1
 6 8 l 1,3,-1
 6 6 l 1,4,-1
 2 6 l 1,5,-1
 2 5 l 1,6,-1
 4 3 l 1,7,-1
 2 3 l 1,8,-1
 2 0 l 1,9,-1
 0 0 l 25,0,-1
EndSplineSet
EndChar

StartChar: G
Encoding: 71 71 71
Width: 7
VWidth: 0
Flags: MW
LayerCount: 2
Fore
SplineSet
6 8 m 1,0,-1
 6 6 l 1,1,-1
 2 6 l 1,2,-1
 2 2 l 1,3,-1
 4 2 l 1,4,-1
 4 3 l 1,5,-1
 3 4 l 1,6,-1
 4 5 l 1,7,-1
 6 5 l 1,8,-1
 6 0 l 1,9,-1
 2 0 l 1,10,-1
 0 2 l 1,11,-1
 0 6 l 1,12,-1
 2 8 l 1,13,-1
 6 8 l 1,0,-1
EndSplineSet
Validated: 1
EndChar

StartChar: H
Encoding: 72 72 72
Width: 7
VWidth: 0
Flags: MW
LayerCount: 2
Fore
SplineSet
0 0 m 17,0,-1
 0 5 l 1,1,-1
 0 6 l 1,2,-1
 2 8 l 1,3,-1
 2 5 l 1,4,-1
 4 5 l 1,5,-1
 4 8 l 1,6,-1
 6 8 l 1,7,-1
 6 0 l 1,8,-1
 4 0 l 1,9,-1
 4 3 l 1,10,-1
 2 3 l 1,11,-1
 2 0 l 1,12,-1
 0 0 l 17,0,-1
EndSplineSet
Validated: 1
EndChar

StartChar: I
Encoding: 73 73 73
Width: 7
VWidth: 0
Flags: MW
LayerCount: 2
Fore
SplineSet
0 0 m 25,0,-1
 0 2 l 1,1,-1
 2 2 l 1,2,-1
 2 6 l 1,3,-1
 0 6 l 1,4,-1
 0 8 l 1,5,-1
 6 8 l 1,6,-1
 6 6 l 1,7,-1
 4 6 l 1,8,-1
 4 2 l 1,9,-1
 6 2 l 1,10,-1
 6 0 l 1,11,-1
 0 0 l 25,0,-1
EndSplineSet
Validated: 1
EndChar

StartChar: J
Encoding: 74 74 74
Width: 7
VWidth: 0
Flags: MW
LayerCount: 2
Fore
SplineSet
0 0 m 1,0,-1
 2 2 l 1,1,-1
 2 8 l 1,2,-1
 4 8 l 1,3,-1
 4 0 l 1,4,-1
 0 0 l 1,0,-1
EndSplineSet
EndChar

StartChar: K
Encoding: 75 75 75
Width: 7
VWidth: 0
Flags: MW
LayerCount: 2
Fore
SplineSet
0 0 m 29,0,-1
 0 8 l 1,1,-1
 2 8 l 1,2,-1
 2 5 l 1,3,-1
 4 5 l 1,4,-1
 4 8 l 1,5,-1
 6 8 l 1,6,-1
 6 5 l 1,7,-1
 5 4 l 1,8,-1
 6 3 l 1,9,-1
 6 0 l 1,10,-1
 4 0 l 1,11,-1
 4 3 l 1,12,-1
 2 3 l 1,13,-1
 2 0 l 1,14,-1
 0 0 l 29,0,-1
EndSplineSet
Validated: 1
EndChar

StartChar: L
Encoding: 76 76 76
Width: 7
VWidth: 0
Flags: MW
LayerCount: 2
Fore
SplineSet
0 8 m 29,0,-1
 2 8 l 1,1,-1
 2 2 l 1,2,-1
 4 2 l 1,3,-1
 6 0 l 1,4,-1
 0 0 l 1,5,-1
 0 8 l 29,0,-1
EndSplineSet
Validated: 1
EndChar

StartChar: M
Encoding: 77 77 77
Width: 7
VWidth: 0
Flags: MW
LayerCount: 2
Fore
SplineSet
0 0 m 29,0,-1
 0 8 l 1,1,-1
 1 8 l 1,2,-1
 3 6 l 1,3,-1
 5 8 l 1,4,-1
 6 8 l 1,5,-1
 6 0 l 1,6,-1
 4 0 l 1,7,-1
 4 4 l 1,8,-1
 2 4 l 1,9,-1
 2 0 l 1,10,-1
 0 0 l 29,0,-1
EndSplineSet
Validated: 1
EndChar

StartChar: N
Encoding: 78 78 78
Width: 7
VWidth: 0
Flags: MW
LayerCount: 2
Fore
SplineSet
0 0 m 29,0,-1
 0 8 l 1,1,-1
 4 8 l 1,2,-1
 6 6 l 1,3,-1
 6 0 l 1,4,-1
 4 0 l 1,5,-1
 4 6 l 1,6,-1
 2 6 l 1,7,-1
 2 0 l 1,8,-1
 0 0 l 29,0,-1
EndSplineSet
Validated: 1
EndChar

StartChar: O
Encoding: 79 79 79
Width: 7
VWidth: 0
Flags: MW
LayerCount: 2
Fore
SplineSet
4 6 m 29,0,-1
 2 6 l 1,1,-1
 2 2 l 1,2,-1
 4 2 l 1,3,-1
 4 6 l 29,0,-1
2 8 m 25,4,-1
 4 8 l 1,5,-1
 6 6 l 1,6,-1
 6 2 l 1,7,-1
 4 0 l 1,8,-1
 2 0 l 1,9,-1
 0 2 l 1,10,-1
 0 6 l 1,11,-1
 2 8 l 25,4,-1
EndSplineSet
Validated: 1
EndChar

StartChar: P
Encoding: 80 80 80
Width: 7
VWidth: 0
Flags: MW
LayerCount: 2
Fore
SplineSet
4 6 m 29,0,-1
 2 6 l 1,1,-1
 2 4 l 1,2,-1
 4 4 l 1,3,-1
 4 6 l 29,0,-1
0 0 m 25,4,-1
 0 8 l 1,5,-1
 4 8 l 1,6,-1
 6 6 l 1,7,-1
 6 4 l 1,8,-1
 4 2 l 1,9,-1
 2 2 l 1,10,-1
 2 0 l 1,11,-1
 0 0 l 25,4,-1
EndSplineSet
Validated: 1
EndChar

StartChar: Q
Encoding: 81 81 81
Width: 7
VWidth: 0
Flags: MW
LayerCount: 2
Fore
SplineSet
4 6 m 29,0,-1
 2 6 l 1,1,-1
 2 4 l 1,2,-1
 4 4 l 1,3,-1
 4 6 l 29,0,-1
6 0 m 25,4,-1
 4 0 l 1,5,-1
 4 2 l 1,6,-1
 2 2 l 1,7,-1
 0 4 l 1,8,-1
 0 6 l 1,9,-1
 2 8 l 1,10,-1
 6 8 l 1,11,-1
 6 0 l 25,4,-1
EndSplineSet
Validated: 1
EndChar

StartChar: R
Encoding: 82 82 82
Width: 7
VWidth: 0
Flags: MW
LayerCount: 2
Fore
SplineSet
0 0 m 29,0,-1
 0 8 l 1,1,-1
 4 8 l 1,2,-1
 6 6 l 1,3,-1
 2 6 l 1,4,-1
 2 0 l 1,5,-1
 0 0 l 29,0,-1
EndSplineSet
Validated: 1
EndChar

StartChar: S
Encoding: 83 83 83
Width: 7
VWidth: 0
Flags: MW
LayerCount: 2
Fore
SplineSet
0 8 m 1,0,-1
 4 8 l 1,1,-1
 6 6 l 1,2,-1
 2 6 l 1,3,-1
 2 5 l 1,4,-1
 6 4 l 1,5,-1
 6 0 l 1,6,-1
 0 0 l 1,7,-1
 0 2 l 1,8,-1
 4 2 l 1,9,-1
 4 3 l 1,10,-1
 0 4 l 1,11,-1
 0 8 l 1,0,-1
EndSplineSet
Validated: 1
EndChar

StartChar: T
Encoding: 84 84 84
Width: 7
VWidth: 0
Flags: MW
LayerCount: 2
Fore
SplineSet
2 0 m 29,0,-1
 2 6 l 1,1,-1
 0 6 l 1,2,-1
 0 8 l 1,3,-1
 4 8 l 1,4,-1
 6 6 l 1,5,-1
 4 6 l 1,6,-1
 4 0 l 1,7,-1
 2 0 l 29,0,-1
EndSplineSet
Validated: 1
EndChar

StartChar: U
Encoding: 85 85 85
Width: 7
VWidth: 0
Flags: MW
LayerCount: 2
Fore
SplineSet
0 8 m 29,0,-1
 2 8 l 1,1,-1
 2 2 l 1,2,-1
 4 2 l 1,3,-1
 4 8 l 1,4,-1
 6 8 l 1,5,-1
 6 2 l 1,6,-1
 4 0 l 1,7,-1
 0 0 l 1,8,-1
 0 8 l 29,0,-1
EndSplineSet
Validated: 1
EndChar

StartChar: V
Encoding: 86 86 86
Width: 7
VWidth: 0
Flags: MW
LayerCount: 2
Fore
SplineSet
0 8 m 25,0,-1
 2 8 l 1,1,-1
 2 3 l 1,2,-1
 3 2 l 1,3,-1
 4 3 l 1,4,-1
 4 8 l 1,5,-1
 6 8 l 1,6,-1
 6 2 l 1,7,-1
 4 0 l 1,8,-1
 2 0 l 1,9,-1
 0 2 l 1,10,-1
 0 8 l 25,0,-1
EndSplineSet
Validated: 1
EndChar

StartChar: W
Encoding: 87 87 87
Width: 7
VWidth: 0
Flags: MW
LayerCount: 2
Fore
SplineSet
0 0 m 25,0,-1
 2 0 l 1,1,-1
 3 2 l 1,2,-1
 4 0 l 1,3,-1
 6 0 l 1,4,-1
 6 8 l 1,5,-1
 4 8 l 1,6,-1
 4 3 l 1,7,-1
 3 5 l 1,8,-1
 2 3 l 1,9,-1
 2 8 l 1,10,-1
 0 8 l 1,11,-1
 0 0 l 25,0,-1
EndSplineSet
Validated: 9
EndChar

StartChar: X
Encoding: 88 88 88
Width: 7
VWidth: 0
Flags: MW
LayerCount: 2
Fore
SplineSet
3 2 m 29,0,-1
 1 0 l 1,1,-1
 0 0 l 1,2,-1
 0 2 l 1,3,-1
 2 4 l 1,4,-1
 0 6 l 1,5,-1
 0 8 l 1,6,-1
 1 8 l 1,7,-1
 3 6 l 1,8,-1
 5 8 l 1,9,-1
 6 8 l 1,10,-1
 6 6 l 1,11,-1
 4 4 l 1,12,-1
 6 2 l 1,13,-1
 6 0 l 1,14,-1
 5 0 l 1,15,-1
 3 2 l 29,0,-1
EndSplineSet
Validated: 1
EndChar

StartChar: Y
Encoding: 89 89 89
Width: 7
VWidth: 0
Flags: MW
LayerCount: 2
Fore
SplineSet
0 8 m 1,0,-1
 1 8 l 1,1,-1
 3 6 l 1,2,-1
 5 8 l 1,3,-1
 6 8 l 1,4,-1
 6 6 l 1,5,-1
 4 4 l 1,6,-1
 4 0 l 1,7,-1
 2 2 l 1,8,-1
 2 4 l 1,9,-1
 0 6 l 1,10,-1
 0 8 l 1,0,-1
EndSplineSet
Validated: 1
EndChar

StartChar: Z
Encoding: 90 90 90
Width: 7
VWidth: 0
Flags: MW
LayerCount: 2
Fore
SplineSet
0 8 m 1,0,-1
 6 8 l 1,1,-1
 6 5 l 1,2,-1
 3 2 l 1,3,-1
 6 2 l 1,4,-1
 6 0 l 1,5,-1
 0 0 l 1,6,-1
 0 2 l 1,7,-1
 4 6 l 1,8,-1
 0 6 l 1,9,-1
 0 8 l 1,0,-1
EndSplineSet
Validated: 1
EndChar

StartChar: bracketleft
Encoding: 91 91 91
Width: 7
VWidth: 0
Flags: MW
LayerCount: 2
Fore
SplineSet
6 6 m 1,0,-1
 5 8 l 1,1,-1
 2 8 l 1,2,-1
 2 -2 l 1,3,-1
 5 -2 l 1,4,-1
 6 0 l 1,5,-1
 4 0 l 1,6,-1
 4 6 l 1,7,-1
 6 6 l 1,0,-1
EndSplineSet
EndChar

StartChar: backslash
Encoding: 92 92 92
Width: 7
VWidth: 0
Flags: MW
LayerCount: 2
Fore
SplineSet
5 -2 m 29,0,-1
 6 -2 l 29,1,-1
 6 -1 l 29,2,-1
 1 8 l 29,3,-1
 0 8 l 29,4,-1
 0 7 l 29,5,-1
 5 -2 l 29,0,-1
EndSplineSet
EndChar

StartChar: bracketright
Encoding: 93 93 93
Width: 7
VWidth: 0
Flags: MW
LayerCount: 2
Fore
SplineSet
0 6 m 1,0,-1
 1 8 l 1,1,-1
 4 8 l 1,2,-1
 4 -2 l 5,3,-1
 1 -2 l 1,4,-1
 0 0 l 1,5,-1
 2 0 l 1,6,-1
 2 6 l 1,7,-1
 0 6 l 1,0,-1
EndSplineSet
EndChar

StartChar: asciicircum
Encoding: 94 94 94
Width: 7
VWidth: 0
Flags: MW
LayerCount: 2
Fore
SplineSet
1 4 m 1,0,-1
 1 6 l 1,1,-1
 3 8 l 1,2,-1
 5 6 l 1,3,-1
 5 4 l 1,4,-1
 3 6 l 1,5,-1
 1 4 l 1,0,-1
EndSplineSet
EndChar

StartChar: underscore
Encoding: 95 95 95
Width: 7
VWidth: 0
Flags: MW
LayerCount: 2
Fore
SplineSet
1 -2 m 25,0,-1
 0 -1 l 1,1,-1
 0 0 l 25,2,-1
 6 0 l 1,3,-1
 6 -1 l 25,4,-1
 5 -2 l 25,5,-1
 1 -2 l 25,0,-1
EndSplineSet
EndChar

StartChar: grave
Encoding: 96 96 96
Width: 7
VWidth: 0
Flags: MW
LayerCount: 2
Fore
SplineSet
0 8 m 1,0,-1
 2 6 l 1,1,-1
 3 6 l 5,2,-1
 1 8 l 1,3,-1
 0 8 l 1,0,-1
EndSplineSet
EndChar

StartChar: a
Encoding: 97 97 97
Width: 7
VWidth: 0
Flags: MW
LayerCount: 2
Fore
SplineSet
3 2 m 1,0,-1
 4 2 l 1,1,-1
 4 1 l 1,2,-1
 2 1 l 1,3,-1
 3 2 l 1,0,-1
6 0 m 1,4,-1
 6 4 l 25,5,-1
 5 5 l 25,6,-1
 0 5 l 25,7,-1
 1 4 l 1,8,-1
 4 4 l 1,9,-1
 4 3 l 1,10,-1
 2 3 l 1,11,-1
 0 1 l 1,12,-1
 0 0 l 1,13,-1
 6 0 l 1,4,-1
EndSplineSet
EndChar

StartChar: b
Encoding: 98 98 98
Width: 7
VWidth: 0
Flags: MW
LayerCount: 2
Fore
SplineSet
2 3 m 1,0,-1
 2 2 l 5,1,-1
 4 2 l 1,2,-1
 4 3 l 1,3,-1
 2 3 l 1,0,-1
0 8 m 25,4,-1
 2 8 l 1,5,-1
 2 5 l 1,6,-1
 4 5 l 1,7,-1
 6 3 l 1,8,-1
 6 2 l 1,9,-1
 4 0 l 1,10,-1
 0 0 l 25,11,-1
 0 8 l 25,4,-1
EndSplineSet
EndChar

StartChar: c
Encoding: 99 99 99
Width: 7
VWidth: 0
Flags: MW
LayerCount: 2
Fore
SplineSet
0 3 m 25,0,-1
 2 5 l 1,1,-1
 6 5 l 1,2,-1
 4 3 l 1,3,-1
 2 3 l 1,4,-1
 2 2 l 1,5,-1
 4 2 l 1,6,-1
 6 0 l 1,7,-1
 2 0 l 1,8,-1
 0 2 l 1,9,-1
 0 3 l 25,0,-1
EndSplineSet
EndChar

StartChar: d
Encoding: 100 100 100
Width: 7
VWidth: 0
Flags: MW
LayerCount: 2
Fore
SplineSet
2 2 m 29,0,-1
 4 2 l 25,1,-1
 4 3 l 25,2,-1
 2 3 l 25,3,-1
 2 2 l 29,0,-1
2 0 m 25,4,-1
 0 2 l 25,5,-1
 0 3 l 25,6,-1
 2 5 l 25,7,-1
 4 5 l 25,8,-1
 4 8 l 25,9,-1
 6 8 l 25,10,-1
 6 0 l 25,11,-1
 2 0 l 25,4,-1
EndSplineSet
EndChar

StartChar: e
Encoding: 101 101 101
Width: 7
VWidth: 0
Flags: MW
LayerCount: 2
Fore
SplineSet
2 3 m 25,0,-1
 4 3 l 25,1,-1
 4 4 l 25,2,-1
 2 4 l 25,3,-1
 2 3 l 25,0,-1
0 3 m 9,4,-1
 0 4 l 1,5,-1
 1 5 l 1,6,-1
 5 5 l 1,7,-1
 6 4 l 1,8,-1
 6 3 l 1,9,-1
 5 2 l 25,10,-1
 2 2 l 1,11,-1
 2 1 l 1,12,-1
 5 1 l 1,13,-1
 6 0 l 1,14,-1
 1 0 l 1,15,-1
 0 1 l 1,16,-1
 0 3 l 9,4,-1
EndSplineSet
EndChar

StartChar: f
Encoding: 102 102 102
Width: 7
VWidth: 0
Flags: MW
LayerCount: 2
Fore
SplineSet
0 0 m 1,0,-1
 0 3 l 25,1,-1
 2 5 l 25,2,-1
 5 5 l 25,3,-1
 5 3 l 25,4,-1
 2 3 l 5,5,-1
 4 1 l 5,6,-1
 2 1 l 1,7,-1
 2 0 l 1,8,-1
 0 0 l 1,0,-1
EndSplineSet
EndChar

StartChar: g
Encoding: 103 103 103
Width: 7
VWidth: 0
Flags: MW
LayerCount: 2
Fore
SplineSet
2 3 m 1,0,-1
 2 2 l 1,1,-1
 4 2 l 1,2,-1
 4 3 l 1,3,-1
 2 3 l 1,0,-1
0 3 m 1,4,-1
 2 5 l 1,5,-1
 6 5 l 1,6,-1
 6 -2 l 1,7,-1
 0 -2 l 1,8,-1
 1 -1 l 1,9,-1
 4 -1 l 1,10,-1
 4 0 l 1,11,-1
 2 0 l 1,12,-1
 0 2 l 1,13,-1
 0 3 l 1,4,-1
EndSplineSet
EndChar

StartChar: h
Encoding: 104 104 104
Width: 7
VWidth: 0
Flags: MW
LayerCount: 2
Fore
SplineSet
0 0 m 29,0,-1
 0 8 l 25,1,-1
 2 8 l 25,2,-1
 2 5 l 25,3,-1
 4 5 l 25,4,-1
 6 3 l 25,5,-1
 6 0 l 25,6,-1
 4 0 l 25,7,-1
 4 3 l 25,8,-1
 2 3 l 25,9,-1
 2 0 l 25,10,-1
 0 0 l 29,0,-1
EndSplineSet
EndChar

StartChar: i
Encoding: 105 105 105
Width: 7
VWidth: 0
Flags: MW
LayerCount: 2
Fore
SplineSet
2 3 m 25,0,-1
 2 5 l 1,1,-1
 4 5 l 1,2,-1
 2 3 l 25,0,-1
2 0 m 25,3,-1
 2 2 l 1,4,-1
 4 4 l 1,5,-1
 4 0 l 1,6,-1
 2 0 l 25,3,-1
EndSplineSet
EndChar

StartChar: j
Encoding: 106 106 106
Width: 7
VWidth: 0
Flags: MW
LayerCount: 2
Fore
SplineSet
2 3 m 1,0,-1
 2 5 l 1,1,-1
 4 5 l 1,2,-1
 2 3 l 1,0,-1
2 -2 m 1,3,-1
 0 -2 l 1,4,-1
 2 0 l 1,5,-1
 2 2 l 1,6,-1
 4 4 l 1,7,-1
 4 0 l 1,8,-1
 2 -2 l 1,3,-1
EndSplineSet
EndChar

StartChar: k
Encoding: 107 107 107
Width: 7
VWidth: 0
Flags: MW
LayerCount: 2
Fore
SplineSet
0 0 m 25,0,-1
 0 5 l 1,1,-1
 2 5 l 1,2,-1
 2 3 l 1,3,-1
 4 4 l 1,4,-1
 4 5 l 1,5,-1
 6 5 l 1,6,-1
 6 4 l 1,7,-1
 5 3 l 1,8,-1
 6 2 l 1,9,-1
 6 0 l 1,10,-1
 4 0 l 1,11,-1
 4 2 l 1,12,-1
 2 1 l 1,13,-1
 2 0 l 1,14,-1
 0 0 l 25,0,-1
EndSplineSet
EndChar

StartChar: l
Encoding: 108 108 108
Width: 7
VWidth: 0
Flags: MW
LayerCount: 2
Fore
SplineSet
1 5 m 25,0,-1
 3 5 l 1,1,-1
 3 2 l 1,2,-1
 4 2 l 1,3,-1
 6 0 l 1,4,-1
 1 0 l 1,5,-1
 1 5 l 25,0,-1
EndSplineSet
EndChar

StartChar: m
Encoding: 109 109 109
Width: 7
VWidth: 0
Flags: MW
LayerCount: 2
Fore
SplineSet
0 0 m 1,0,-1
 0 5 l 1,1,-1
 1 5 l 1,2,-1
 3 3 l 1,3,-1
 5 5 l 1,4,-1
 6 5 l 1,5,-1
 6 0 l 1,6,-1
 4 0 l 1,7,-1
 4 2 l 1,8,-1
 3 1 l 1,9,-1
 2 2 l 1,10,-1
 2 0 l 1,11,-1
 0 0 l 1,0,-1
EndSplineSet
EndChar

StartChar: n
Encoding: 110 110 110
Width: 7
VWidth: 0
Flags: MW
LayerCount: 2
Fore
SplineSet
0 0 m 25,0,-1
 0 5 l 1,1,-1
 4 5 l 1,2,-1
 6 3 l 1,3,-1
 6 0 l 1,4,-1
 4 0 l 1,5,-1
 4 3 l 1,6,-1
 2 3 l 1,7,-1
 2 0 l 1,8,-1
 0 0 l 25,0,-1
EndSplineSet
EndChar

StartChar: o
Encoding: 111 111 111
Width: 7
VWidth: 0
Flags: MW
LayerCount: 2
Fore
SplineSet
4 3 m 25,0,-1
 2 3 l 1,1,-1
 2 2 l 1,2,-1
 4 2 l 5,3,-1
 4 3 l 25,0,-1
2 5 m 1,4,-1
 4 5 l 1,5,-1
 6 3 l 1,6,-1
 6 2 l 1,7,-1
 4 0 l 1,8,-1
 2 0 l 1,9,-1
 0 2 l 1,10,-1
 0 3 l 1,11,-1
 2 5 l 1,4,-1
EndSplineSet
EndChar

StartChar: p
Encoding: 112 112 112
Width: 7
VWidth: 0
Flags: MW
LayerCount: 2
Fore
SplineSet
4 3 m 25,0,-1
 2 3 l 1,1,-1
 2 2 l 1,2,-1
 4 2 l 1,3,-1
 4 3 l 25,0,-1
0 -2 m 25,4,-1
 0 5 l 1,5,-1
 4 5 l 1,6,-1
 6 3 l 1,7,-1
 6 2 l 1,8,-1
 4 0 l 1,9,-1
 2 0 l 1,10,-1
 2 -2 l 1,11,-1
 0 -2 l 25,4,-1
EndSplineSet
EndChar

StartChar: q
Encoding: 113 113 113
Width: 7
VWidth: 0
Flags: MW
LayerCount: 2
Fore
SplineSet
4 3 m 25,0,-1
 2 3 l 1,1,-1
 2 2 l 1,2,-1
 4 2 l 1,3,-1
 4 3 l 25,0,-1
6 -2 m 25,4,-1
 4 -2 l 1,5,-1
 4 0 l 1,6,-1
 2 0 l 1,7,-1
 0 2 l 1,8,-1
 0 3 l 1,9,-1
 2 5 l 1,10,-1
 6 5 l 1,11,-1
 6 -2 l 25,4,-1
EndSplineSet
EndChar

StartChar: r
Encoding: 114 114 114
Width: 7
VWidth: 0
Flags: MW
LayerCount: 2
Fore
SplineSet
1 0 m 25,0,-1
 1 5 l 1,1,-1
 4 5 l 1,2,-1
 6 3 l 1,3,-1
 3 3 l 1,4,-1
 3 0 l 1,5,-1
 1 0 l 25,0,-1
EndSplineSet
EndChar

StartChar: s
Encoding: 115 115 115
Width: 7
VWidth: 0
Flags: MW
LayerCount: 2
Fore
SplineSet
0 5 m 1,0,-1
 4 5 l 1,1,-1
 6 4 l 1,2,-1
 2 4 l 1,3,-1
 2 3 l 1,4,-1
 6 3 l 1,5,-1
 6 0 l 1,6,-1
 0 0 l 1,7,-1
 0 1 l 5,8,-1
 4 1 l 1,9,-1
 4 2 l 1,10,-1
 0 2 l 1,11,-1
 0 5 l 1,0,-1
EndSplineSet
EndChar

StartChar: t
Encoding: 116 116 116
Width: 7
VWidth: 0
Flags: MW
LayerCount: 2
Fore
SplineSet
2 0 m 1,0,-1
 2 3 l 1,1,-1
 1 3 l 1,2,-1
 0 5 l 1,3,-1
 5 5 l 1,4,-1
 6 3 l 1,5,-1
 4 3 l 1,6,-1
 4 1 l 1,7,-1
 5 0 l 1,8,-1
 2 0 l 1,0,-1
EndSplineSet
EndChar

StartChar: u
Encoding: 117 117 117
Width: 7
VWidth: 0
Flags: MW
LayerCount: 2
Fore
SplineSet
0 5 m 1,0,-1
 2 5 l 1,1,-1
 2 2 l 1,2,-1
 4 2 l 1,3,-1
 4 5 l 1,4,-1
 6 5 l 1,5,-1
 6 0 l 1,6,-1
 2 0 l 1,7,-1
 0 2 l 1,8,-1
 0 5 l 1,0,-1
EndSplineSet
EndChar

StartChar: v
Encoding: 118 118 118
Width: 7
VWidth: 0
Flags: MW
LayerCount: 2
Fore
SplineSet
0 5 m 25,0,-1
 2 5 l 1,1,-1
 2 2 l 1,2,-1
 3 1 l 1,3,-1
 4 2 l 1,4,-1
 4 5 l 1,5,-1
 6 5 l 1,6,-1
 6 2 l 5,7,-1
 3 -1 l 5,8,-1
 0 2 l 1,9,-1
 0 5 l 25,0,-1
EndSplineSet
EndChar

StartChar: w
Encoding: 119 119 119
Width: 7
VWidth: 0
Flags: MW
LayerCount: 2
Fore
SplineSet
0 0 m 25,0,-1
 2 0 l 1,1,-1
 3 1 l 1,2,-1
 4 0 l 1,3,-1
 6 0 l 1,4,-1
 6 5 l 1,5,-1
 4 5 l 1,6,-1
 4 2 l 1,7,-1
 3 3 l 1,8,-1
 2 2 l 1,9,-1
 2 5 l 1,10,-1
 0 5 l 1,11,-1
 0 0 l 25,0,-1
EndSplineSet
EndChar

StartChar: x
Encoding: 120 120 120
Width: 7
VWidth: 0
Flags: MW
LayerCount: 2
Fore
SplineSet
4 1 m 17,0,-1
 2 1 l 1,1,-1
 1 0 l 1,2,-1
 0 0 l 1,3,-1
 0 1 l 1,4,-1
 1 2 l 1,5,-1
 1 3 l 1,6,-1
 0 4 l 1,7,-1
 0 5 l 1,8,-1
 1 5 l 1,9,-1
 2 4 l 1,10,-1
 4 4 l 1,11,-1
 5 5 l 1,12,-1
 6 5 l 1,13,-1
 6 4 l 1,14,-1
 5 3 l 1,15,-1
 5 2 l 1,16,-1
 6 1 l 1,17,-1
 6 0 l 1,18,-1
 5 0 l 1,19,-1
 4 1 l 17,0,-1
EndSplineSet
EndChar

StartChar: y
Encoding: 121 121 121
Width: 7
VWidth: 0
Flags: MW
LayerCount: 2
Fore
SplineSet
0 5 m 1,0,-1
 1 5 l 1,1,-1
 3 3 l 1,2,-1
 5 5 l 1,3,-1
 6 5 l 1,4,-1
 6 3 l 1,5,-1
 4 1 l 1,6,-1
 4 -2 l 1,7,-1
 2 0 l 1,8,-1
 2 1 l 1,9,-1
 0 3 l 1,10,-1
 0 5 l 1,0,-1
EndSplineSet
EndChar

StartChar: z
Encoding: 122 122 122
Width: 7
VWidth: 0
Flags: MW
LayerCount: 2
Fore
SplineSet
0 5 m 1,0,-1
 5 5 l 1,1,-1
 6 5 l 1,2,-1
 6 4 l 1,3,-1
 2 1 l 1,4,-1
 6 2 l 1,5,-1
 6 0 l 1,6,-1
 1 0 l 1,7,-1
 0 0 l 1,8,-1
 0 1 l 1,9,-1
 4 4 l 1,10,-1
 0 3 l 1,11,-1
 0 5 l 1,0,-1
EndSplineSet
EndChar

StartChar: braceleft
Encoding: 123 123 123
Width: 7
VWidth: 0
Flags: MW
LayerCount: 2
Fore
SplineSet
5 6 m 25,0,-1
 5 8 l 1,1,-1
 2 5 l 1,2,-1
 2 4 l 1,3,-1
 1 3 l 1,4,-1
 2 2 l 1,5,-1
 2 1 l 1,6,-1
 5 -2 l 1,7,-1
 5 0 l 25,8,-1
 4 1 l 1,9,-1
 4 2 l 1,10,-1
 3 3 l 1,11,-1
 4 4 l 1,12,-1
 4 5 l 1,13,-1
 5 6 l 25,0,-1
EndSplineSet
EndChar

StartChar: bar
Encoding: 124 124 124
Width: 7
VWidth: 0
Flags: MW
LayerCount: 2
Fore
SplineSet
2 7 m 29,0,-1
 3 8 l 25,1,-1
 4 7 l 25,2,-1
 4 -1 l 25,3,-1
 3 -2 l 25,4,-1
 2 -1 l 25,5,-1
 2 7 l 29,0,-1
EndSplineSet
EndChar

StartChar: braceright
Encoding: 125 125 125
Width: 7
VWidth: 0
Flags: MW
LayerCount: 2
Fore
SplineSet
1 6 m 25,0,-1
 1 8 l 1,1,-1
 4 5 l 1,2,-1
 4 4 l 1,3,-1
 5 3 l 1,4,-1
 4 2 l 1,5,-1
 4 1 l 1,6,-1
 1 -2 l 1,7,-1
 1 0 l 25,8,-1
 2 1 l 1,9,-1
 2 2 l 1,10,-1
 3 3 l 1,11,-1
 2 4 l 1,12,-1
 2 5 l 1,13,-1
 1 6 l 25,0,-1
EndSplineSet
EndChar

StartChar: asciitilde
Encoding: 126 126 126
Width: 7
VWidth: 0
Flags: MW
LayerCount: 2
Fore
SplineSet
1 3 m 1,0,-1
 0 2 l 1,1,-1
 0 4 l 1,2,-1
 2 6 l 1,3,-1
 3 5 l 1,4,-1
 4 4 l 1,5,-1
 6 6 l 1,6,-1
 6 4 l 1,7,-1
 4 2 l 1,8,-1
 2 4 l 1,9,-1
 1 3 l 1,0,-1
EndSplineSet
EndChar

StartChar: uni007F
Encoding: 127 127 127
Width: 7
VWidth: 0
Flags: MW
LayerCount: 2
Fore
SplineSet
0 -2 m 1,0,-1
 0 8 l 1,1,-1
 6 8 l 1,2,-1
 6 -2 l 1,3,-1
 0 -2 l 1,0,-1
EndSplineSet
Validated: 1
EndChar
